<svg id="ee3ztsoT1S81" xmlns="http://www.w3.org/2000/svg" xmlns:xlink="http://www.w3.org/1999/xlink" viewBox="0 0 503.021 503.021" shape-rendering="geometricPrecision" text-rendering="geometricPrecision"><g><g><path d="M491.613,75.643L427.378,11.408c-15.202-15.202-39.854-15.202-55.056,0L251.507,132.222L130.686,11.407c-15.202-15.202-39.853-15.202-55.055,0L11.401,75.643c-15.202,15.202-15.202,39.854,0,55.056L132.222,251.514L11.401,372.328c-15.202,15.202-15.202,39.854,0,55.056l64.235,64.229c15.202,15.202,39.854,15.202,55.056,0L251.507,370.799L372.329,491.613c15.202,15.202,39.854,15.202,55.056,0l64.235-64.229c15.202-15.202,15.202-39.854,0-55.056L370.793,251.514l120.82-120.815c15.202-15.209,15.202-39.854,0-55.056Z" fill="#31c4be"/></g></g></svg>
